<svg aria-hidden="true" style="position: absolute; width: 0; height: 0; overflow: hidden;" version="1.1" xmlns="http://www.w3.org/2000/svg" xmlns:xlink="http://www.w3.org/1999/xlink">
<defs>
<symbol id="bitcoin" viewBox="0 0 32 32">
<path fill="#F7931A" style="fill: var(--color1, #000)" d="M31.518 19.871c-2.137 8.571-10.819 13.788-19.391 11.651-8.569-2.137-13.786-10.819-11.648-19.39 2.136-8.572 10.818-13.79 19.388-11.652 8.572 2.137 13.788 10.82 11.651 19.392z"></path>
<path fill="#fff" style="fill: var(--color2, #fff)" d="M23.050 13.721c0.318-2.129-1.303-3.274-3.519-4.037l0.719-2.884-1.756-0.438-0.7 2.808c-0.461-0.115-0.935-0.223-1.406-0.331l0.705-2.826-1.755-0.438-0.72 2.883c-0.382-0.087-0.757-0.173-1.121-0.264l0.002-0.009-2.421-0.604-0.467 1.875c0 0 1.303 0.299 1.275 0.317 0.711 0.178 0.839 0.648 0.818 1.021l-0.819 3.285c0.049 0.012 0.113 0.030 0.182 0.059-0.059-0.014-0.121-0.030-0.185-0.046l-1.148 4.603c-0.087 0.216-0.307 0.54-0.805 0.417 0.018 0.026-1.276-0.318-1.276-0.318l-0.872 2.010 2.285 0.569c0.425 0.107 0.841 0.218 1.252 0.323l-0.726 2.917 1.754 0.437 0.72-2.886c0.479 0.13 0.944 0.25 1.399 0.363l-0.717 2.872 1.755 0.438 0.727-2.912c2.994 0.567 5.244 0.338 6.192-2.37 0.763-2.18-0.038-3.437-1.613-4.257 1.147-0.265 2.011-1.019 2.242-2.578zM19.039 19.346c-0.542 2.18-4.213 1.001-5.403 0.706l0.964-3.865c1.19 0.297 5.006 0.885 4.439 3.159zM19.582 13.69c-0.495 1.983-3.55 0.976-4.541 0.729l0.874-3.505c0.991 0.247 4.182 0.708 3.667 2.777z"></path>
</symbol>
<symbol id="visa" viewBox="0 0 103 32">
<path fill="#0072ff" style="fill: var(--color3, #0072ff)" d="M41.892 0.606l-5.2 30.79h8.2l5.2-30.79h-8.2z"></path>
<path fill="#0072ff" style="fill: var(--color3, #0072ff)" d="M89.294 0.606c-2 0-3.4 0.585-4.2 2.533l-12.2 28.451h8.6c0 0 1.4-3.897 1.8-4.677 1 0 9.2 0 10.4 0 0.2 1.169 1 4.677 1 4.677h7.6l-6.6-30.985h-6.4zM85.494 20.483c0.6-1.754 3.2-8.574 3.2-8.574s0.6-1.754 1-2.923l0.6 2.728c0 0 1.6 7.405 2 8.964h-6.8v-0.195z"></path>
<path fill="#0072ff" style="fill: var(--color3, #0072ff)" d="M66.494 13.076c-2.8-1.364-4.6-2.338-4.6-3.897 0-1.364 1.4-2.728 4.6-2.728 2.6 0 4.6 0.585 6.2 1.169l0.8 0.39 1.2-6.626c-1.6-0.585-4.2-1.364-7.4-1.364-8 0-13.8 4.287-13.8 10.133 0 4.482 4 7.015 7.2 8.38 3.2 1.559 4.2 2.533 4.2 3.897 0 2.144-2.6 2.923-5 2.923-3.2 0-5-0.39-7.8-1.559l-1-0.585-1.2 6.821c2 0.779 5.4 1.559 9.2 1.559 8.6 0 14.2-4.092 14.2-10.523 0.2-3.118-2-5.846-6.8-7.99z"></path>
<path fill="#0072ff" style="fill: var(--color3, #0072ff)" d="M29.896 0.606l-8 21.046-0.8-4.287-2.8-14.226c-0.4-1.949-2-2.533-3.8-2.533h-13c-0.2 0-0.2 0.195-0.4 0.195 0 0.195 0 0.39 0.2 0.39 2 0.585 3.8 1.169 5.4 1.949 1.8 0.78 3 2.338 3.6 4.092l6.6 24.164h8.6l12.8-30.79h-8.4z"></path>
</symbol>
<symbol id="stripe" viewBox="0 0 71 32">
<path fill="#635bff" style="fill: var(--color4, #635bff)" d="M18.239 3.636l-4.786 1.022-0.022 15.822c0 2.922 2.188 4.811 5.095 4.811 1.614 0 2.796-0.3 3.448-0.656v-3.755c-0.63 0.256-3.725 1.167-3.725-1.744v-7.022h3.725v-4.2h-3.725l-0.011-4.278zM28.087 9.369l-0.298-1.456h-4.244v17.022h4.896v-11.456c1.16-1.533 3.117-1.233 3.747-1.033v-4.533c-0.663-0.233-2.951-0.667-4.1 1.456zM38.288 1.336l-4.929 1.056v4.022l4.929-1.056v-4.022zM4.965 12.924c0-0.767 0.641-1.067 1.669-1.078 1.492 0 3.393 0.456 4.885 1.267v-4.644c-1.625-0.644-3.249-0.9-4.874-0.9-3.979 0-6.632 2.089-6.632 5.578 0 5.467 7.461 4.578 7.461 6.933 0 0.911-0.785 1.211-1.879 1.211-1.625 0-3.725-0.678-5.372-1.578v4.444c1.824 0.789 3.669 1.122 5.361 1.122 4.078 0 6.886-1.756 6.886-5.311 0-5.878-7.505-4.822-7.505-7.044zM70.739 16.624c0-5.056-2.432-9.044-7.096-9.044s-7.505 3.989-7.505 9.011c0 5.944 3.349 8.689 8.124 8.689 2.343 0 4.101-0.533 5.438-1.278v-3.711c-1.337 0.678-2.874 1.089-4.819 1.089-1.912 0-3.592-0.678-3.813-2.989h9.605c0.022-0.256 0.066-1.289 0.066-1.767zM61.024 14.758c0-2.222 1.359-3.156 2.586-3.156 1.205 0 2.487 0.933 2.487 3.156h-5.073zM48.545 7.58c-1.923 0-3.161 0.911-3.846 1.544l-0.254-1.222h-4.322v22.756l4.907-1.044 0.011-5.578c0.707 0.522 1.757 1.244 3.471 1.244 3.515 0 6.72-2.578 6.72-8.844 0.011-5.733-3.239-8.856-6.687-8.856zM47.374 21.191c-1.149 0-1.835-0.422-2.31-0.933l-0.033-7.333c0.508-0.567 1.216-0.978 2.343-0.978 1.79 0 3.028 2.022 3.028 4.6 0.011 2.656-1.205 4.644-3.028 4.644zM33.37 24.936h4.93v-17.022h-4.93v17.022z"></path>
</symbol>
<symbol id="paypal" viewBox="0 0 32 32">
<path fill="#000" style="fill: var(--color1, #000)" d="M11.999 26h-5c-0.8 0-1.6-0.4-2.1-1s-0.7-1.4-0.5-2.2l4.3-18.8c0.3-1.2 1.3-2 2.6-2h8.6c2.3 0 4.4 1 5.9 2.8 1.4 1.8 2 4.1 1.5 6.4-0.8 4-4.4 6.8-8.5 6.8h-3.2c-0.5 0-1 0.4-1.1 0.9l-1.5 6.3c-0.1 0.5-0.5 0.8-1 0.8z"></path>
<path fill="#01308a" style="fill: var(--color5, #01308a)" d="M11.999 26h-5c-0.8 0-1.6-0.4-2.1-1s-0.7-1.4-0.5-2.2l4.3-18.8c0.3-1.2 1.3-2 2.6-2h8.6c2.3 0 4.4 1 5.9 2.8 1.4 1.8 2 4.1 1.5 6.4-0.8 4-4.4 6.8-8.5 6.8h-3.2c-0.5 0-1 0.4-1.1 0.9l-1.5 6.3c-0.1 0.5-0.5 0.8-1 0.8z"></path>
<path fill="#019cde" style="fill: var(--color6, #019cde)" d="M29.3 11.299c0 0.1 0 0.2 0 0.3-1 4.9-5.4 8.4-10.4 8.4h-2.5l-1.4 5.7c-0.4 1.4-1.6 2.3-3 2.3h-2c0.1 0.4 0.2 0.7 0.5 1 0.5 0.6 1.2 0.9 2 0.9h4.5c0.5 0 0.9-0.3 1-0.7l1.4-5.5c0.1-0.4 0.5-0.6 0.9-0.6h2.9c3.7 0 7-2.5 7.7-6 0.4-2.1-0.2-4.3-1.6-5.8z"></path>
</symbol>
<symbol id="mkey" viewBox="0 0 76 32">
<path d="M23.921 13.844c-0.35-2.124-2.069-3.87-5.099-3.87-1.399 0-2.418 0.291-3.322 0.902l-1.573 2.095c-0.641-1.717-2.243-2.997-4.837-2.997-1.428 0-2.418 0.291-3.351 0.902l-1.165 1.92v-2.415h-4.574v15.508h4.574v-8.060c0-3.172 0.845-4.714 2.593-4.714 1.486 0 2.273 0.873 2.477 2.415 0.087 0.786 0.117 1.629 0.117 2.357v8.002h4.545v-8.060c0-3.172 0.874-4.714 2.622-4.714 1.457 0 2.273 0.873 2.448 2.415 0.087 0.786 0.116 1.629 0.116 2.357v8.002h4.574v-9.165c0-1.251-0.029-2.095-0.146-2.881z"></path>
<path d="M33.109 19.954l4.516 5.936h5.681l-6.818-8.351 6.73-7.158h-5.419l-5.886 6.809v-12.686h-4.574v21.386h4.574v-4.627l1.195-1.309zM58.896 17.859c0-4.132-2.564-7.885-7.517-7.885-4.924 0-8.042 3.55-8.042 8.205 0 5.47 3.409 8.118 7.75 8.118 3.788 0 6.701-1.891 7.546-5.47h-4.516c-0.262 1.455-1.34 2.328-2.943 2.328-1.719 0-3.001-0.873-3.263-3.841h10.897c0.058-0.553 0.087-1.047 0.087-1.455zM51.175 13.116c1.69 0 2.71 1.135 2.972 3.317h-6.119c0.379-2.299 1.515-3.317 3.147-3.317zM76.187 10.381h-4.982l-3.525 11.988-3.555-11.988h-5.099l6.381 16.207-0.204 0.495c-0.583 1.338-1.457 1.804-2.768 1.804-0.466 0-0.874 0-1.282-0.058v3.055c0.641 0.087 1.195 0.116 1.981 0.116 3.38 0 5.070-1.28 6.847-5.79l6.206-15.829z"></path>
<path d="M54.725 3.88c-0.146-0.885-0.801-1.564-1.955-1.564-0.571 0-1.032 0.109-1.36 0.376l-0.571 0.824c-0.243-0.703-0.874-1.2-1.857-1.2-0.571 0-1.032 0.109-1.36 0.376l-0.413 0.727v-0.933h-1.044v6.426h1.044v-3.176c0-1.952 0.595-2.594 1.408-2.594 0.728 0 1.19 0.352 1.287 1.079 0.036 0.327 0.049 0.679 0.049 1.249v3.443h1.044v-3.176c0-1.952 0.595-2.594 1.408-2.594 0.728 0 1.19 0.352 1.287 1.079 0.036 0.327 0.049 0.679 0.049 1.249v3.443h1.044v-3.928c0-0.521-0.012-0.776-0.061-1.103zM61.348 5.516c0-1.879-0.983-3.201-2.756-3.201-1.76 0-3.059 1.321-3.059 3.407 0 2.267 1.25 3.358 2.926 3.358 1.323 0 2.55-0.691 2.804-2.243h-1.093c-0.146 0.921-0.826 1.443-1.663 1.443-0.947 0-1.748-0.57-1.845-2.267h4.662c0.024-0.23 0.024-0.4 0.024-0.497zM58.567 3.116c1.056 0 1.627 0.764 1.724 2.097h-3.618c0.121-1.37 0.874-2.097 1.894-2.097zM67.865 0h-1.044v3.37l-0.425-0.63c-0.328-0.267-1.008-0.424-1.542-0.424-1.663 0-3.144 1.103-3.144 3.479 0 1.879 1.044 3.286 2.926 3.286 0.656 0 1.335-0.206 1.7-0.509l0.486-0.691v1.030h1.044v-8.911zM64.793 8.28c-1.287 0-1.942-1.152-1.942-2.607 0-1.685 0.874-2.558 2.003-2.558 0.923 0 1.967 0.63 1.967 2.291v0.352c0 1.843-0.959 2.522-2.027 2.522zM69.749 0.376c-0.376 0-0.668 0.291-0.668 0.667s0.291 0.667 0.668 0.667c0.376 0 0.668-0.291 0.668-0.667s-0.291-0.667-0.668-0.667zM70.271 8.911v-6.426h-1.044v6.426h1.044zM75.325 8.911h1.044c-0.097-0.715-0.121-1.152-0.121-1.637v-2.413c0-0.279-0.012-0.594-0.036-0.849-0.109-1.055-0.753-1.697-2.282-1.697-1.42 0-2.379 0.788-2.477 2.158h1.093c0.073-0.885 0.51-1.358 1.384-1.358 0.862 0 1.202 0.388 1.251 0.982 0.024 0.242 0.024 0.497 0.024 0.776v0.17h-0.413c-2.525 0-3.618 0.752-3.618 2.207 0 1.188 0.91 1.831 2.076 1.831 0.619 0 1.178-0.097 1.615-0.4l0.352-0.691 0.109 0.921zM73.601 8.28c-0.789 0-1.287-0.339-1.287-1.115 0-1.103 1.117-1.479 2.889-1.346v0.655c0 1.164-0.631 1.806-1.603 1.806z"></path>
</symbol>
<symbol id="mastercard" viewBox="0 0 49 32">
<path fill="#f79f1a" style="fill: var(--color7, #f79f1a)" d="M48.84 15.681c0 8.66-6.762 15.681-15.104 15.681s-15.104-7.020-15.104-15.681c0-8.66 6.762-15.681 15.104-15.681s15.104 7.020 15.104 15.681z"></path>
<path fill="#ea001b" style="fill: var(--color8, #ea001b)" d="M30.209 15.681c0 8.66-6.762 15.681-15.104 15.681s-15.104-7.020-15.104-15.681c0-8.66 6.762-15.681 15.104-15.681s15.104 7.020 15.104 15.681z"></path>
<path fill="#ff5f01" style="fill: var(--color9, #ff5f01)" d="M24.418 3.336c-3.524 2.871-5.786 7.331-5.786 12.342s2.262 9.475 5.786 12.346c3.524-2.871 5.786-7.335 5.786-12.346s-2.262-9.472-5.786-12.342z"></path>
<path fill="#f79f1a" style="fill: var(--color7, #f79f1a)" d="M48.817 24v-0.56h-0.141l-0.162 0.385-0.162-0.385h-0.141v0.56h0.1v-0.422l0.152 0.364h0.103l0.152-0.365v0.423h0.1zM47.924 24v-0.464h0.181v-0.095h-0.46v0.095h0.181v0.464h0.099z"></path>
</symbol>
<symbol id="lang_arrow" viewBox="0 0 40 32">
<path fill="#8c8c8c" style="fill: var(--color10, #8c8c8c)" d="M18.586 23.415c0.781 0.781 2.047 0.781 2.828 0l12.728-12.728c0.781-0.781 0.781-2.047 0-2.828s-2.047-0.781-2.828 0l-11.314 11.314-11.314-11.314c-0.781-0.781-2.047-0.781-2.828 0s-0.781 2.047 0 2.828l12.728 12.728zM18 22v0z"></path>
</symbol>
    <symbol id="grcircle" viewBox="0 0 32 32">
      <path fill="#d9d9d9" style="fill:var(--color1, #d9d9d9)" d="M32 16c0 8.837-7.163 16-16 16S0 24.837 0 16 7.163 0 16 0s16 7.163 16 16z"/>
    </symbol>
    <symbol id="blcircle" viewBox="0 0 32 32">
      <path d="M32 16c0 8.837-7.163 16-16 16S0 24.837 0 16 7.163 0 16 0s16 7.163 16 16z"/>
    </symbol>
</defs>
</svg>
